<?xml version="1.0" encoding="UTF-8"?>
<svg version="1.1" xmlns="http://www.w3.org/2000/svg" width="200" height="200">
<path d="M0 0 C1.6730957 1.15551758 1.6730957 1.15551758 3 3 C3.34057617 5.63549805 3.34057617 5.63549805 3.29296875 8.76171875 C3.28330078 9.87998047 3.27363281 10.99824219 3.26367188 12.15039062 C3.23853516 13.31763672 3.21339844 14.48488281 3.1875 15.6875 C3.16719727 17.45577148 3.16719727 17.45577148 3.14648438 19.25976562 C3.11109326 22.17363411 3.06171809 25.08658945 3 28 C4.05832031 27.68546875 5.11664063 27.3709375 6.20703125 27.046875 C51.78922529 13.97871477 97.56088831 17.46750031 143 29 C142.97643433 27.84213989 142.97643433 27.84213989 142.95239258 26.66088867 C142.89010393 23.16983338 142.85102827 19.67889491 142.8125 16.1875 C142.78736328 14.97255859 142.76222656 13.75761719 142.73632812 12.50585938 C142.72182617 10.76079102 142.72182617 10.76079102 142.70703125 8.98046875 C142.68346558 7.37014771 142.68346558 7.37014771 142.65942383 5.72729492 C143 3 143 3 144.29956055 1.15356445 C147.18796936 -0.80590886 149.63991229 -0.42001096 153 0 C156.20646383 2.77893532 156.53450501 5.90364407 157 10 C157.94875 9.938125 158.8975 9.87625 159.875 9.8125 C160.90625 9.874375 161.9375 9.93625 163 10 C165.29013653 13.4352048 165.17842973 14.985331 165 19 C166.65 19 168.3 19 170 19 C170 28.9 170 38.8 170 49 C168.35 49 166.7 49 165 49 C165.04125 49.928125 165.0825 50.85625 165.125 51.8125 C165 55 165 55 163 58 C159.875 58.1875 159.875 58.1875 157 58 C156.80664062 58.63808594 156.61328125 59.27617188 156.4140625 59.93359375 C156.15367187 60.75988281 155.89328125 61.58617187 155.625 62.4375 C155.36976563 63.26121094 155.11453125 64.08492188 154.8515625 64.93359375 C154 67 154 67 152 68 C146.67479927 68.45320857 146.67479927 68.45320857 144.34057617 66.88549805 C142.38881906 64.14038419 142.56392211 61.92535729 142.48828125 58.58203125 C142.45283203 57.32841797 142.41738281 56.07480469 142.38085938 54.78320312 C142.35830078 53.47287109 142.33574219 52.16253906 142.3125 50.8125 C142.27932334 49.47717987 142.24483334 48.14189168 142.20898438 46.80664062 C142.12637943 43.53784496 142.05726771 40.26932188 142 37 C129.8964453 33.52792538 117.83197107 30.58324469 105.375 28.6875 C104.3348877 28.52862305 103.29477539 28.36974609 102.22314453 28.20605469 C69.44524986 23.46921426 35.48440733 25.33365872 4 36 C3.98541748 36.86278564 3.97083496 37.72557129 3.95581055 38.61450195 C3.89472246 41.81849647 3.82056451 45.02184625 3.73754883 48.2253418 C3.70431451 49.61129377 3.67627774 50.99738061 3.65356445 52.38354492 C3.61999383 54.37706843 3.56612 56.37021741 3.51171875 58.36328125 C3.48553467 59.56251221 3.45935059 60.76174316 3.43237305 61.99731445 C3 65 3 65 1.68676758 66.88745117 C-1.20449914 68.79445688 -3.66405675 68.41699291 -7 68 C-10.20646383 65.22106468 -10.53450501 62.09635593 -11 58 C-12.423125 58.0928125 -12.423125 58.0928125 -13.875 58.1875 C-14.90625 58.125625 -15.9375 58.06375 -17 58 C-19.29013653 54.5647952 -19.17842973 53.014669 -19 49 C-20.65 49 -22.3 49 -24 49 C-24 39.1 -24 29.2 -24 19 C-22.35 19 -20.7 19 -19 19 C-19.04125 18.071875 -19.0825 17.14375 -19.125 16.1875 C-19 13 -19 13 -17 10 C-13.875 9.8125 -13.875 9.8125 -11 10 C-10.80664062 9.36191406 -10.61328125 8.72382812 -10.4140625 8.06640625 C-10.15367188 7.24011719 -9.89328125 6.41382812 -9.625 5.5625 C-9.36976562 4.73878906 -9.11453125 3.91507812 -8.8515625 3.06640625 C-7.19710909 -0.94829949 -3.87484187 -0.31631362 0 0 Z " fill="#000000" transform="translate(27,66)"/>
</svg>
